<?xml version="1.0" standalone="no"?><svg xmlns:xlink="http://www.w3.org/1999/xlink" xmlns="http://www.w3.org/2000/svg" viewBox="0 0 1000 571.4282424306629" preserveAspectRatio="xMaxYMax slice"><g transform="scale(1.1514926799610334)"><rect x="0" y="0" width="930.46875" height="496.25" fill="#2F3E18"/><rect x="62.03125" y="0" width="62.03125" height="62.03125" fill="#2F3E18"/><path d="M 558.28 0 A 62.03 62.03 0 0 1  620.31 62.03 L 558.28 0 A 62.03 62.03 0 0 0 620.31 62.03" fill="#3a4d1b"/><rect x="620.3125" y="0" width="62.03125" height="62.03125" fill="#2F3E18"/><path d="M 651.33 0 A 31.02 31.02 0 0 1  682.35 31.02 L 651.33 0 A 31.02 31.02 0 0 0 682.35 31.02" fill="#344519"/><path d="M 620.31 31.02 A 31.02 31.02 0 0 1  651.3299999999999 62.04 L 620.31 31.02 A 31.02 31.02 0 0 0 651.3299999999999 62.04" fill="#49631f"/><path d="M 682.34 62.03 A 62.03 62.03 0 0 1  744.37 0 L 682.34 62.03 A 62.03 62.03 0 0 0 744.37 0" fill="#3e531c"/><rect x="806.40625" y="0" width="62.03125" height="62.03125" fill="#2F3E18"/><path d="M 837.42 31.02 A 31.02 31.02 0 0 1  868.4399999999999 0 L 837.42 31.02 A 31.02 31.02 0 0 0 868.4399999999999 0" fill="#303f18"/><path d="M 837.42 62.04 A 31.02 31.02 0 0 1  868.4399999999999 31.02 L 837.42 62.04 A 31.02 31.02 0 0 0 868.4399999999999 31.02" fill="#324319"/><rect x="310.15625" y="62.03125" width="62.03125" height="62.03125" fill="#2F3E18"/><path d="M 310.16 62.03 A 31.02 31.02 0 0 1  341.18 93.05 L 310.16 62.03 A 31.02 31.02 0 0 0 341.18 93.05" fill="#557622"/><path d="M 341.17 93.05 A 31.02 31.02 0 0 1  372.19 62.03 L 341.17 93.05 A 31.02 31.02 0 0 0 372.19 62.03" fill="#41571d"/><path d="M 310.16 93.05 A 31.02 31.02 0 0 1  341.18 124.07 L 310.16 93.05 A 31.02 31.02 0 0 0 341.18 124.07" fill="#314119"/><rect x="868.4375" y="62.03125" width="62.03125" height="62.03125" fill="#2F3E18"/><path d="M 124.06 186.09 A 62.03 62.03 0 0 1  186.09 124.06 L 124.06 186.09 A 62.03 62.03 0 0 0 186.09 124.06" fill="#3f551c"/><rect x="310.15625" y="124.0625" width="62.03125" height="62.03125" fill="#2F3E18"/><path d="M 341.17 155.08 A 31.02 31.02 0 0 1  372.19 124.06 L 341.17 155.08 A 31.02 31.02 0 0 0 372.19 124.06" fill="#3d531c"/><path d="M 434.22 186.09 A 62.03 62.03 0 0 1  496.25 124.06 L 434.22 186.09 A 62.03 62.03 0 0 0 496.25 124.06" fill="#334319"/><path d="M 806.41 124.06 A 62.03 62.03 0 0 1  868.4399999999999 186.09 L 806.41 124.06 A 62.03 62.03 0 0 0 868.4399999999999 186.09" fill="#3f541c"/><path d="M 0 186.09 A 62.03 62.03 0 0 1  62.03 248.12 L 0 186.09 A 62.03 62.03 0 0 0 62.03 248.12" fill="#435b1d"/><rect x="186.09375" y="186.09375" width="62.03125" height="62.03125" fill="#2F3E18"/><path d="M 217.11 217.11 A 31.02 31.02 0 0 1  248.13000000000002 248.13000000000002 L 217.11 217.11 A 31.02 31.02 0 0 0 248.13000000000002 248.13000000000002" fill="#3e531c"/><path d="M 310.16 186.09 A 62.03 62.03 0 0 1  372.19000000000005 248.12 L 310.16 186.09 A 62.03 62.03 0 0 0 372.19000000000005 248.12" fill="#334319"/><path d="M 372.19 248.12 A 62.03 62.03 0 0 1  434.22 186.09 L 372.19 248.12 A 62.03 62.03 0 0 0 434.22 186.09" fill="#314219"/><path d="M 434.22 248.12 A 62.03 62.03 0 0 1  496.25 186.09 L 434.22 248.12 A 62.03 62.03 0 0 0 496.25 186.09" fill="#3d521c"/><rect x="868.4375" y="186.09375" width="62.03125" height="62.03125" fill="#2F3E18"/><rect x="62.03125" y="248.125" width="62.03125" height="62.03125" fill="#2F3E18"/><path d="M 62.03 310.15999999999997 A 31.02 31.02 0 0 1  93.05 279.14 L 62.03 310.15999999999997 A 31.02 31.02 0 0 0 93.05 279.14" fill="#303f18"/><path d="M 93.05 310.15999999999997 A 31.02 31.02 0 0 1  124.07 279.14 L 93.05 310.15999999999997 A 31.02 31.02 0 0 0 124.07 279.14" fill="#3b4f1b"/><rect x="124.0625" y="248.125" width="62.03125" height="62.03125" fill="#2F3E18"/><path d="M 155.08 279.15 A 31.02 31.02 0 0 1  186.10000000000002 248.13 L 155.08 279.15 A 31.02 31.02 0 0 0 186.10000000000002 248.13" fill="#37491a"/><path d="M 155.08 310.15999999999997 A 31.02 31.02 0 0 1  186.10000000000002 279.14 L 155.08 310.15999999999997 A 31.02 31.02 0 0 0 186.10000000000002 279.14" fill="#49641f"/><rect x="186.09375" y="248.125" width="62.03125" height="62.03125" fill="#2F3E18"/><path d="M 186.09 279.14 A 31.02 31.02 0 0 1  217.11 310.15999999999997 L 186.09 279.14 A 31.02 31.02 0 0 0 217.11 310.15999999999997" fill="#4d6a20"/><rect x="744.375" y="248.125" width="62.03125" height="62.03125" fill="#2F3E18"/><path d="M 744.38 310.15999999999997 A 31.02 31.02 0 0 1  775.4 279.14 L 744.38 310.15999999999997 A 31.02 31.02 0 0 0 775.4 279.14" fill="#506e20"/><path d="M 806.41 310.15999999999997 A 62.03 62.03 0 0 1  868.4399999999999 248.13 L 806.41 310.15999999999997 A 62.03 62.03 0 0 0 868.4399999999999 248.13" fill="#394c1b"/><path d="M 0 310.16 A 62.03 62.03 0 0 1  62.03 372.19000000000005 L 0 310.16 A 62.03 62.03 0 0 0 62.03 372.19000000000005" fill="#324319"/><path d="M 62.03 310.16 A 62.03 62.03 0 0 1  124.06 372.19000000000005 L 62.03 310.16 A 62.03 62.03 0 0 0 124.06 372.19000000000005" fill="#344519"/><path d="M 310.16 310.16 A 62.03 62.03 0 0 1  372.19000000000005 372.19000000000005 L 310.16 310.16 A 62.03 62.03 0 0 0 372.19000000000005 372.19000000000005" fill="#42591d"/><path d="M 372.19 372.19000000000005 A 62.03 62.03 0 0 1  434.22 310.16 L 372.19 372.19000000000005 A 62.03 62.03 0 0 0 434.22 310.16" fill="#4f6c20"/><rect x="558.28125" y="310.15625" width="62.03125" height="62.03125" fill="#2F3E18"/><path d="M 558.28 341.18 A 31.02 31.02 0 0 1  589.3 310.16 L 558.28 341.18 A 31.02 31.02 0 0 0 589.3 310.16" fill="#3e541c"/><path d="M 558.28 372.19 A 31.02 31.02 0 0 1  589.3 341.17 L 558.28 372.19 A 31.02 31.02 0 0 0 589.3 341.17" fill="#48631e"/><path d="M 589.3 341.17 A 31.02 31.02 0 0 1  620.3199999999999 372.19 L 589.3 341.17 A 31.02 31.02 0 0 0 620.3199999999999 372.19" fill="#344519"/><rect x="620.3125" y="310.15625" width="62.03125" height="62.03125" fill="#2F3E18"/><path d="M 620.31 310.16 A 31.02 31.02 0 0 1  651.3299999999999 341.18 L 620.31 310.16 A 31.02 31.02 0 0 0 651.3299999999999 341.18" fill="#465e1e"/><path d="M 806.41 310.16 A 62.03 62.03 0 0 1  868.4399999999999 372.19000000000005 L 806.41 310.16 A 62.03 62.03 0 0 0 868.4399999999999 372.19000000000005" fill="#2f3f18"/><rect x="0" y="372.1875" width="62.03125" height="62.03125" fill="#2F3E18"/><path d="M 0 372.19 A 31.02 31.02 0 0 1  31.02 403.21 L 0 372.19 A 31.02 31.02 0 0 0 31.02 403.21" fill="#506e20"/><path d="M 31.02 403.21 A 31.02 31.02 0 0 1  62.04 372.19 L 31.02 403.21 A 31.02 31.02 0 0 0 62.04 372.19" fill="#465f1e"/><path d="M 31.02 434.21999999999997 A 31.02 31.02 0 0 1  62.04 403.2 L 31.02 434.21999999999997 A 31.02 31.02 0 0 0 62.04 403.2" fill="#3c511b"/><path d="M 310.16 434.22 A 62.03 62.03 0 0 1  372.19000000000005 372.19 L 310.16 434.22 A 62.03 62.03 0 0 0 372.19000000000005 372.19" fill="#354719"/><path d="M 0 434.22 A 62.03 62.03 0 0 1  62.03 496.25 L 0 434.22 A 62.03 62.03 0 0 0 62.03 496.25" fill="#49641e"/><path d="M 434.22 496.25 A 62.03 62.03 0 0 1  496.25 434.22 L 434.22 496.25 A 62.03 62.03 0 0 0 496.25 434.22" fill="#465f1e"/><rect x="682.34375" y="434.21875" width="62.03125" height="62.03125" fill="#2F3E18"/><path d="M 682.34 496.25 A 31.02 31.02 0 0 1  713.36 465.23 L 682.34 496.25 A 31.02 31.02 0 0 0 713.36 465.23" fill="#3a4e1b"/></g></svg>